<svg xmlns="http://www.w3.org/2000/svg" width="24" height="24" viewBox="0 0 24 24" fill="none">
<path stroke="#9EFFC9" stroke-width="1.8" stroke-linecap="round" stroke-linejoin="round" d="M12 8.2a3.8 3.8 0 1 0 0 7.6 3.8 3.8 0 0 0 0-7.6Z"/><path stroke="#9EFFC9" stroke-width="1.8" stroke-linecap="round" stroke-linejoin="round" d="M19.4 13.2a7.8 7.8 0 0 0 0-2.4l2-1.5-2-3.4-2.4 1a8 8 0 0 0-2.1-1.2L14.6 3h-5.2l-.4 2.7A8 8 0 0 0 7 6.9l-2.4-1-2 3.4 2 1.5a7.8 7.8 0 0 0 0 2.4l-2 1.5 2 3.4 2.4-1a8 8 0 0 0 2.1 1.2l.4 2.7h5.2l.4-2.7a8 8 0 0 0 2.1-1.2l2.4 1 2-3.4-2.2-1.5Z"/>
</svg>
